<svg id="instagram-logo" xmlns="http://www.w3.org/2000/svg" width="48.3" height="48.3" viewBox="0 0 48.3 48.3">
  <path id="Caminho_20" data-name="Caminho 20" d="M34.971,0H13.329A13.344,13.344,0,0,0,0,13.329V34.971A13.344,13.344,0,0,0,13.329,48.3H34.971A13.344,13.344,0,0,0,48.3,34.971V13.329A13.344,13.344,0,0,0,34.971,0Zm9.044,34.971a9.054,9.054,0,0,1-9.044,9.044H13.329a9.054,9.054,0,0,1-9.043-9.044V13.329a9.054,9.054,0,0,1,9.043-9.044H34.971a9.054,9.054,0,0,1,9.044,9.044V34.971Z" fill="#4dc479"/>
  <path id="Caminho_21" data-name="Caminho 21" d="M53.414,40.97A12.445,12.445,0,1,0,65.859,53.416,12.46,12.46,0,0,0,53.414,40.97Zm0,20.605a8.16,8.16,0,1,1,8.16-8.16A8.169,8.169,0,0,1,53.414,61.575Z" transform="translate(-29.264 -29.265)" fill="#4dc479"/>
  <path id="Caminho_22" data-name="Caminho 22" d="M122.064,28.251a3.141,3.141,0,1,0,2.223.92A3.155,3.155,0,0,0,122.064,28.251Z" transform="translate(-84.946 -20.18)" fill="#4dc479"/>
</svg>
