<svg xmlns="http://www.w3.org/2000/svg" width="50.497" height="50.498" viewBox="0 0 50.497 50.498">
  <g id="twitter" transform="translate(1.25 1.25)">
    <circle id="Elipse_59" data-name="Elipse 59" cx="23.999" cy="23.999" r="23.999" transform="translate(0 0)" fill="none" stroke="#fff" stroke-width="2.5"/>
    <g id="Agrupar_16" data-name="Agrupar 16" transform="translate(10.739 14.557)">
      <path id="Caminho_23" data-name="Caminho 23" d="M53.063,36.718a11.445,11.445,0,0,1-3.295.9,5.752,5.752,0,0,0,2.523-3.173,11.483,11.483,0,0,1-3.643,1.392,5.741,5.741,0,0,0-9.775,5.233,16.284,16.284,0,0,1-11.824-5.994,5.743,5.743,0,0,0,1.775,7.659,5.7,5.7,0,0,1-2.6-.718c0,.024,0,.049,0,.073a5.74,5.74,0,0,0,4.6,5.624,5.759,5.759,0,0,1-2.59.1A5.742,5.742,0,0,0,33.6,51.8,11.58,11.58,0,0,1,25.1,54.173,16.226,16.226,0,0,0,33.9,56.751c10.551,0,16.321-8.741,16.321-16.322,0-.249-.006-.5-.017-.742a11.633,11.633,0,0,0,2.863-2.969Z" transform="translate(-25.103 -34.028)" fill="#fff"/>
    </g>
  </g>
</svg>
