<svg id="whatsapp-logo" xmlns="http://www.w3.org/2000/svg" width="16.953" height="16.953" viewBox="0 0 16.953 16.953">
  <path id="WhatsApp" d="M16.953,8.258A8.336,8.336,0,0,1,4.608,15.489L0,16.953l1.5-4.431A8.171,8.171,0,0,1,.308,8.258a8.323,8.323,0,0,1,16.645,0ZM8.631,1.315a6.978,6.978,0,0,0-7,6.943,6.87,6.87,0,0,0,1.333,4.071l-.874,2.579,2.689-.855A7,7,0,0,0,15.628,8.259,6.979,6.979,0,0,0,8.631,1.315Zm4.2,8.845c-.051-.084-.187-.135-.391-.236s-1.207-.591-1.394-.658-.323-.1-.459.1-.527.658-.646.793-.238.152-.442.051a5.584,5.584,0,0,1-1.64-1A6.1,6.1,0,0,1,6.726,7.8c-.119-.2-.012-.312.089-.413s.2-.236.306-.355a1.357,1.357,0,0,0,.2-.338.369.369,0,0,0-.017-.355c-.051-.1-.459-1.1-.629-1.5s-.34-.338-.459-.338-.255-.017-.391-.017a.753.753,0,0,0-.544.253A2.263,2.263,0,0,0,4.571,6.43,3.917,3.917,0,0,0,5.4,8.523a8.339,8.339,0,0,0,3.485,3.056c2.074.81,2.074.54,2.448.506a2.063,2.063,0,0,0,1.377-.962A1.688,1.688,0,0,0,12.833,10.16Z" fill="#fff"/>
</svg>
