<svg xmlns="http://www.w3.org/2000/svg" viewBox="0 0 735.285 610.884">
  <defs>
    <style>
      .cls-1 {
        fill: #d3d3d3;
      }

      .cls-2 {
        fill: #ffc1a0;
      }

      .cls-3 {
        fill: #fff;
      }

      .cls-4 {
        fill: #00de91;
      }

      .cls-5 {
        fill: #d0d0dd;
      }

      .cls-6 {
        fill: #513e35;
      }

      .cls-7 {
        fill: #332e55;
      }

      .cls-8 {
        fill: #211e40;
      }

      .cls-9 {
        fill: #ff7292;
      }

      .cls-10 {
        fill: #ec4c77;
      }

      .cls-11 {
        fill: #242143;
      }

      .cls-12 {
        fill: #ffdfc4;
      }

      .cls-13 {
        fill: #3a3750;
      }

      .cls-14 {
        fill: #57443b;
      }

      .cls-15 {
        fill: #00c685;
      }

      .cls-16 {
        fill: #484848;
      }

      .cls-17 {
        fill: #524749;
      }

      .cls-18 {
        fill: #ffcb45;
      }

      .cls-19 {
        fill: #3b4182;
      }

      .cls-20 {
        fill: #444a97;
      }

      .cls-21 {
        fill: #ffa127;
      }
    </style>
  </defs>
  <g id="Group_7397" data-name="Group 7397" transform="translate(-960 -4341.439)">
    <g id="Group_7365" data-name="Group 7365" transform="translate(960 4341.439)">
      <g id="Group_7136" data-name="Group 7136" transform="translate(0 134.668)">
        <g id="Group_7119" data-name="Group 7119">
          <path id="Path_3660" data-name="Path 3660" class="cls-1" d="M609.945,377.57s-136.509,6.67-304.973,6.67S0,377.57,0,377.57s136.509-6.67,304.973-6.67S609.945,377.57,609.945,377.57Z" transform="translate(0 91.975)"/>
          <g id="Group_7115" data-name="Group 7115" transform="translate(52.897)">
            <g id="Group_7061" data-name="Group 7061" transform="translate(113.085 116.329)">
              <g id="Group_7060" data-name="Group 7060" transform="translate(75.855)">
                <path id="Path_3661" data-name="Path 3661" class="cls-2" d="M155.9,189.383l27.457-34.593,27.767-7.291.155,4.654-15.512,8.377,15.978,4.188,21.1-11.324,2.947,3.878-22.183,18.615L186.925,171.7l-14.271,23.268Z" transform="translate(-155.9 -147.5)"/>
                <path id="Path_3662" data-name="Path 3662" class="cls-3" d="M162.1,164.5l7.291-7.6,16.753,20.011-6.2,6.2Z" transform="translate(-152.482 -142.318)"/>
              </g>
              <path id="Path_3663" data-name="Path 3663" class="cls-4" d="M213.26,188.736l-22.8-22.338c-7.6,3.568-35.834,33.2-47.933,47.157h0s-6.515-56.465-19.08-63.756L107,169.966V213.09l10.393,34.127s12.565,8.687,17.839,7.291,28.232-21.252,28.232-21.252h0C186.889,213.866,213.26,188.736,213.26,188.736Z" transform="translate(-107 -146.232)"/>
            </g>
            <g id="Group_7068" data-name="Group 7068" transform="translate(73.71 251.286)">
              <g id="Group_7067" data-name="Group 7067" transform="translate(76.915 181.96)">
                <g id="Group_7066" data-name="Group 7066">
                  <path id="Path_3664" data-name="Path 3664" class="cls-5" d="M172.928,367.157c-1.086-.62-2.172-1.086-3.1-1.551l-1.861-.931c-1.086-.62-2.172-1.086-3.1-1.706-.776-.465-1.4-.776-2.172-1.241-1.086-.62-2.172-1.241-3.1-1.861a34.731,34.731,0,0,1-4.188-2.792v-.155a1.808,1.808,0,0,1-.31-1.086,10.268,10.268,0,0,1,.465-4.033H139.111L131.2,387.478l77.717.621v-7.6A164.58,164.58,0,0,1,172.928,367.157Z" transform="translate(-131.2 -351.8)"/>
                  <g id="Group_7065" data-name="Group 7065" transform="translate(30.304 7.316)">
                    <g id="Group_7062" data-name="Group 7062" transform="translate(10.012 5.835)">
                      <rect id="Rectangle_3977" data-name="Rectangle 3977" class="cls-5" width="10.859" height="3.568" transform="translate(0 8.93) rotate(-55.326)"/>
                    </g>
                    <g id="Group_7063" data-name="Group 7063" transform="translate(5.271 2.823)">
                      <rect id="Rectangle_3978" data-name="Rectangle 3978" class="cls-5" width="10.859" height="3.568" transform="translate(0 8.93) rotate(-55.326)"/>
                    </g>
                    <g id="Group_7064" data-name="Group 7064" transform="translate(0 0)">
                      <rect id="Rectangle_3979" data-name="Rectangle 3979" class="cls-5" width="10.859" height="3.568" transform="translate(0 8.93) rotate(-55.326)"/>
                    </g>
                  </g>
                </g>
              </g>
              <path id="Path_3665" data-name="Path 3665" class="cls-6" d="M221.357,264.439c-8.222-16.443-54.293-18.77-54.293-18.77L85.779,234.5s-11.014,45.3,2.792,55.069,86.094,5.584,86.094,5.584L159.773,420.183h37.85C197.778,420.183,229.423,280.882,221.357,264.439Z" transform="translate(-81.617 -234.5)"/>
            </g>
            <g id="Group_7071" data-name="Group 7071" transform="translate(41.263 329.624)">
              <g id="Group_7069" data-name="Group 7069">
                <rect id="Rectangle_3980" data-name="Rectangle 3980" class="cls-3" width="33.817" height="140.076"/>
                <rect id="Rectangle_3981" data-name="Rectangle 3981" class="cls-5" width="33.817" height="19.39" transform="translate(0 120.531)"/>
              </g>
              <g id="Group_7070" data-name="Group 7070" transform="translate(422.401)">
                <rect id="Rectangle_3982" data-name="Rectangle 3982" class="cls-3" width="33.817" height="140.076"/>
                <rect id="Rectangle_3983" data-name="Rectangle 3983" class="cls-5" width="33.817" height="19.39" transform="translate(0 120.531)"/>
              </g>
            </g>
            <g id="Group_7073" data-name="Group 7073" transform="translate(376.484 325.901)">
              <g id="Group_7072" data-name="Group 7072">
                <path id="Path_3666" data-name="Path 3666" class="cls-7" d="M287.814,420.66l2.482,5.585s32.421-20.631,34.282-25.75l1.862,2.172,12.1-8.066s-7.756-10.393-11.945-11.789h-.155L297.276,282.6,276.8,290.356s36.144,95.091,35.678,97.573c-.155,1.241-5.119,9-12.565,17.994C297.587,409.026,287.814,420.66,287.814,420.66Z" transform="translate(-276.8 -282.6)"/>
                <path id="Path_3667" data-name="Path 3667" class="cls-2" d="M300.069,405.923c3.413,2.017,7.911.31,11.169-2.017a37.436,37.436,0,0,0,11.944-13.185,52.387,52.387,0,0,0,3.413-8.067h-.155L297.276,282.6,276.8,290.356s36.144,95.091,35.678,97.573C312.323,389.17,307.359,396.771,300.069,405.923Z" transform="translate(-276.8 -282.6)"/>
              </g>
            </g>
            <g id="Group_7074" data-name="Group 7074" transform="translate(345.77 331.485)">
              <path id="Path_3668" data-name="Path 3668" class="cls-8" d="M267.859,413.5l2.482,5.119s32.421-18.925,34.282-23.734l1.862,2.017,12.1-7.446s-7.756-9.462-11.944-10.859h-.155l-29.008-92.3L257,293.436s36.144,87.645,35.678,89.816c-.155,1.086-5.119,8.222-12.565,16.6C277.787,402.642,267.859,413.5,267.859,413.5Z" transform="translate(-257 -286.145)"/>
              <path id="Path_3669" data-name="Path 3669" class="cls-2" d="M280.113,399.905c3.413,1.862,7.911.31,11.169-1.861a35.62,35.62,0,0,0,11.945-12.1,45.958,45.958,0,0,0,3.413-7.446h-.155l-29.008-92.3L257,293.336s36.144,87.645,35.678,89.816C292.368,384.393,287.4,391.529,280.113,399.905Z" transform="translate(-257 -286.2)"/>
            </g>
            <path id="Path_3670" data-name="Path 3670" class="cls-9" d="M263.2,259.942c1.551-2.017,3.258-3.413,4.809-3.723,39.711-7.446,77.717,6.36,77.717,6.36s2.172-23.889,3.258-29.164c0,0,14.271-14.116,42.193-14.116,0,0,38.16,31.956,31.335,56s-31.645,29.008-40.332,28.077c-47.158-4.809-81.75-10.083-87.8-11.324a.152.152,0,0,0-.155-.155c-1.241-.155-1.086-.155.155.155,1.086,1.706,13.03,22.183,25.751,49.329a162.512,162.512,0,0,1-33.352,16.443c-7.6-25.906-16.6-52.742-26.061-70.736A25.069,25.069,0,0,1,263.2,259.942Z" transform="translate(89.24 8.408)"/>
            <g id="Group_7075" data-name="Group 7075" transform="translate(0 301.236)">
              <rect id="Rectangle_3984" data-name="Rectangle 3984" class="cls-5" width="514.7" height="18.149" transform="translate(10.704 15.512)"/>
              <rect id="Rectangle_3985" data-name="Rectangle 3985" class="cls-3" width="534.4" height="21.407"/>
            </g>
            <path id="Path_3671" data-name="Path 3671" class="cls-8" d="M262.932,335.86,302.8,324.536l-20.942-43.28,132.32-19.08L402.7,241.7S260.3,246.2,247.575,260C234.855,273.966,262.932,335.86,262.932,335.86Z" transform="translate(81.752 20.755)"/>
            <path id="Path_3672" data-name="Path 3672" class="cls-5" d="M252.2,303.174,294.549,285.8l6.515,14.737L259.8,317.445Z" transform="translate(86.124 45.065)"/>
            <g id="Group_7092" data-name="Group 7092" transform="translate(291.477 48.441)">
              <path id="Path_3673" data-name="Path 3673" class="cls-2" d="M222,166.977l2.017-3.568,3.723.31,2.792-2.327,22.028,11.169-2.947-12.255,3.723-1.706,6.67,14.892,1.706,11.479,29.318,21.252L283.894,220.8,253.645,194.9l-9.307-2.482-17.374-15.978,1.4-2.947Z" transform="translate(-222 -73.493)"/>
              <path id="Path_3674" data-name="Path 3674" class="cls-10" d="M341.9,198.691s-36.454,31.18-43.124,31.18c-7.756.155-21.1-6.825-30.87-12.72-2.016-1.241-4.033-2.482-5.74-3.568-4.033-2.637-6.67-4.5-6.67-4.5l11.169-18.925,7.446,3.878,5.274,2.637,15.512,7.911C309.948,199,330.269,171.7,330.269,171.7Z" transform="translate(-203.534 -66.272)"/>
              <path id="Path_3675" data-name="Path 3675" class="cls-3" d="M277.119,188.992l-11.479,20.321c-2.017-1.241-4.033-2.482-5.739-3.568L271.844,186.2Z" transform="translate(-201.108 -58.279)"/>
              <path id="Path_3676" data-name="Path 3676" class="cls-7" d="M391.277,219.3c-27.922,0-42.194,14.116-42.194,14.116-1.086,5.274-3.258,29.164-3.258,29.164s-38.16-13.806-77.717-6.36c-1.551.31-3.258,1.706-4.809,3.723a25.3,25.3,0,0,0-2.482,27.3c9.307,17.994,18.46,44.831,26.061,70.736,11.634-4.188,26.061-10.083,36.609-16.753a337.923,337.923,0,0,0-27.612-47.933c6.05,1.086,39.246,5.429,86.4,10.083,8.687.931,33.507-4.188,40.332-28.077C429.283,251.255,391.277,219.3,391.277,219.3Z" transform="translate(-202.182 -40.033)"/>
              <path id="Path_3677" data-name="Path 3677" class="cls-9" d="M295.27,220.666c3.723,15.512,20.942,15.2,20.942,15.2h0c.155,1.551.31,3.258.621,4.809,2.792,14.737,11.944,27.3,11.944,27.3,29.473-.155,42.194-14.116,42.194-14.116-9.462-5.274-11.944-19.39-12.875-34.592-.155-3.1-.31-6.05-.465-9.152h0c-.155-6.826-.31-13.5-.776-19.546-1.706-22.183-25.44-33.972-25.44-33.972l-19.391,12.255C310.782,177.231,291.547,205,295.27,220.666Z" transform="translate(-181.875 -74.596)"/>
              <g id="Group_7077" data-name="Group 7077" transform="translate(11.944 135.212)">
                <path id="Path_3678" data-name="Path 3678" class="cls-11" d="M331.771,269.237,331,261.016l-65.307,6.2L240.714,190.9,229.7,193.847l26.836,82.37Z" transform="translate(-229.7 -190.9)"/>
                <g id="Group_7076" data-name="Group 7076" transform="translate(85.451 33.817)">
                  <path id="Path_3679" data-name="Path 3679" class="cls-12" d="M286.2,249.93c5.584,1.706,17.219,4.343,28.543,1.086,34.592,1.086,73.684,1.551,77.251,1.086,5.274-.776,6.205-2.947,6.205-2.947,2.327-4.033,2.947-9.773,2.637-15.512a104.42,104.42,0,0,0-2.172-16.133c-.465-1.862-.775-2.947-.775-2.947L380.054,212.7c.62.776,1.086,3.413,1.551,6.515.621,4.809,1.241,11.169,1.4,14.271a19.438,19.438,0,0,1,.155,2.172c-19.856,3.1-67.634,5.74-67.634,5.74s-14.426-5.584-16.6-5.274c-4.654.62-10.548,8.066-13.5,10.7A1.785,1.785,0,0,0,286.2,249.93Z" transform="translate(-284.786 -212.7)"/>
                  <path id="Path_3680" data-name="Path 3680" class="cls-2" d="M348.641,231.678l17.839.155a104.48,104.48,0,0,0-2.172-16.133L347.4,217.251C347.865,222.215,348.331,228.42,348.641,231.678Z" transform="translate(-250.27 -211.046)"/>
                </g>
              </g>
              <path id="Path_3681" data-name="Path 3681" class="cls-9" d="M329.038,190.277c17.684,9.928,26.061,32.886,29.784,48.088.465,1.706.776,3.258,1.086,4.809,1.241,6.05,1.706,9.928,1.706,9.928l26.991,1.241a92.86,92.86,0,0,0,0-10.393c0-1.551-.155-3.1-.31-4.809-.931-10.393-3.413-24.51-10.393-36.3-12.875-21.872-24.354-30.714-37.23-37.54a60.057,60.057,0,0,0-7.756-3.258,13.265,13.265,0,0,0-16.443,7.291C313.991,174.92,315.077,182.521,329.038,190.277Z" transform="translate(-170.502 -71.974)"/>
              <g id="Group_7091" data-name="Group 7091" transform="translate(104.94)">
                <g id="Group_7090" data-name="Group 7090">
                  <g id="Group_7078" data-name="Group 7078" transform="translate(27.38 59.822)">
                    <path id="Path_3682" data-name="Path 3682" class="cls-12" d="M307.3,145.558a31.167,31.167,0,0,1,2.172,9.773,29.9,29.9,0,0,1,.155,3.723,90.813,90.813,0,0,1-1.241,17.374l21.252-9c-1.706-2.017-4.188-7.6-6.36-13.03-1.4-3.413-2.637-6.67-3.413-9a24.3,24.3,0,0,1-1.086-3.1Z" transform="translate(-307.3 -142.3)"/>
                    <path id="Path_3683" data-name="Path 3683" class="cls-2" d="M308.7,154.228a29.891,29.891,0,0,1,.155,3.723l13.651-4.654c-1.4-3.413-2.637-6.67-3.413-9C319.248,144.455,313.354,150.66,308.7,154.228Z" transform="translate(-306.528 -141.198)"/>
                  </g>
                  <g id="Group_7089" data-name="Group 7089">
                    <g id="Group_7080" data-name="Group 7080" transform="translate(0 20.549)">
                      <g id="Group_7079" data-name="Group 7079">
                        <path id="Path_3684" data-name="Path 3684" class="cls-12" d="M296.863,128.8s-1.241,15.2-5.895,17.374,4.5,8.687,4.5,8.687-.776,27.922,18.615,18.615c17.994-14.116,17.684-17.374,17.684-17.374s7.6.465,8.842-4.809-.31-12.41-7.756-8.842c0,0-4.654-4.964-5.274-10.238s1.241-15.823-6.981-15.2C312.376,117.785,296.863,128.8,296.863,128.8Z" transform="translate(-289.649 -116.983)"/>
                      </g>
                      <path id="Path_3685" data-name="Path 3685" class="cls-2" d="M303.014,138.542a4.17,4.17,0,1,0,4.809-3.413A4.011,4.011,0,0,0,303.014,138.542Z" transform="translate(-282.304 -107.026)"/>
                    </g>
                    <g id="Group_7088" data-name="Group 7088" transform="translate(1.859)">
                      <path id="Path_3686" data-name="Path 3686" class="cls-11" d="M305.51,106.472c.62-.155,1.241-.31,1.706-.465h0A42.244,42.244,0,0,1,328,104.3a50.441,50.441,0,0,1,31.645,19.235c29.008,37.385-2.327,50.1-2.327,50.1l-30.4,7.911c2.792-7.6-.931-34.9-2.482-46.382l-33.041,5.895C291.394,140.755,286.585,112.677,305.51,106.472Z" transform="translate(-290.848 -103.736)"/>
                      <g id="Group_7087" data-name="Group 7087" transform="translate(5.993 7.545)">
                        <g id="Group_7081" data-name="Group 7081" transform="translate(44.193 5.429)">
                          <path id="Path_3687" data-name="Path 3687" class="cls-13" d="M323.2,112.1s.62.465,1.551,1.086,2.327,1.706,4.033,3.1a53.272,53.272,0,0,1,5.274,5.119,68.671,68.671,0,0,1,5.585,6.981,82.518,82.518,0,0,1,4.5,7.756,45.4,45.4,0,0,1,2.792,6.825,43.565,43.565,0,0,1,1.4,4.809l.466,1.861a16.9,16.9,0,0,1,.155-1.861,36.918,36.918,0,0,0-.311-5.274,33.616,33.616,0,0,0-1.861-7.6,44.28,44.28,0,0,0-4.344-8.532,41.475,41.475,0,0,0-6.36-7.136,44.421,44.421,0,0,0-6.36-4.5,37.021,37.021,0,0,0-4.809-2.172A9.23,9.23,0,0,1,323.2,112.1Z" transform="translate(-323.2 -112.1)"/>
                        </g>
                        <g id="Group_7082" data-name="Group 7082" transform="translate(17.741 0.621)">
                          <path id="Path_3688" data-name="Path 3688" class="cls-13" d="M309.331,125.288a19.518,19.518,0,0,1-.155-2.482c0-1.551.31-3.258.465-5.429.31-2.172.31-4.188.465-5.74V109a20.619,20.619,0,0,0-1.706,2.017,13.036,13.036,0,0,0-2.172,5.895,10,10,0,0,0,1.241,6.36,7.554,7.554,0,0,0,1.241,1.551A2.68,2.68,0,0,0,309.331,125.288Z" transform="translate(-306.148 -109)"/>
                        </g>
                        <g id="Group_7083" data-name="Group 7083" transform="translate(9.15)">
                          <path id="Path_3689" data-name="Path 3689" class="cls-13" d="M303.542,125.664v-2.792a47.8,47.8,0,0,1,.62-5.895,40.514,40.514,0,0,1,1.241-5.74,27.4,27.4,0,0,1,.931-2.637l-.62.31a9.216,9.216,0,0,0-1.706,1.241,11.763,11.763,0,0,0-3.258,6.2,11.341,11.341,0,0,0,1.086,6.825,5.377,5.377,0,0,0,1.241,1.706A8.045,8.045,0,0,1,303.542,125.664Z" transform="translate(-300.609 -108.6)"/>
                        </g>
                        <g id="Group_7084" data-name="Group 7084" transform="translate(0 0.31)">
                          <path id="Path_3690" data-name="Path 3690" class="cls-13" d="M298.107,128.5a4.34,4.34,0,0,0-.155-.931,9.581,9.581,0,0,1-.155-2.327,28.631,28.631,0,0,1,.465-6.981,29,29,0,0,1,1.861-6.67,8.3,8.3,0,0,1,.931-2.017,8.08,8.08,0,0,0,.465-.776,8.065,8.065,0,0,0-.776.465c-.465.31-1.241.776-2.016,1.4a13.053,13.053,0,0,0-3.878,7.136,12.851,12.851,0,0,0,1.4,8.066,14.318,14.318,0,0,0,1.4,2.017A2.9,2.9,0,0,0,298.107,128.5Z" transform="translate(-294.711 -108.8)"/>
                        </g>
                        <g id="Group_7085" data-name="Group 7085" transform="translate(55.362 30.094)">
                          <path id="Path_3691" data-name="Path 3691" class="cls-13" d="M330.4,128a9.458,9.458,0,0,1,.776.931,21.951,21.951,0,0,1,1.706,2.482,25.044,25.044,0,0,1,3.413,17.994c-.155,1.241-.465,2.172-.62,2.947-.155.621-.31,1.086-.31,1.086l.776-.776A14.778,14.778,0,0,0,338,150.027a15.7,15.7,0,0,0,1.707-10.548,15.9,15.9,0,0,0-5.43-9.152,11.949,11.949,0,0,0-2.637-1.706Z" transform="translate(-330.4 -128)"/>
                        </g>
                        <g id="Group_7086" data-name="Group 7086" transform="translate(46.365 42.349)">
                          <path id="Path_3692" data-name="Path 3692" class="cls-13" d="M329.564,135.9a25.074,25.074,0,0,1,.155,2.792,23.015,23.015,0,0,1-.931,6.05,20.8,20.8,0,0,1-2.482,5.584c-.931,1.4-1.706,2.327-1.706,2.327a2.714,2.714,0,0,0,.776-.155,10.663,10.663,0,0,0,2.017-.931,10.351,10.351,0,0,0,4.654-5.895,9.711,9.711,0,0,0-.775-7.446c-.465-.776-.931-1.4-1.241-1.861A1.158,1.158,0,0,0,329.564,135.9Z" transform="translate(-324.6 -135.9)"/>
                        </g>
                      </g>
                    </g>
                  </g>
                </g>
                <path id="Path_3693" data-name="Path 3693" class="cls-3" d="M341.6,165.528l-7.446-9.928-27.3,10.393-2.947,9.618Z" transform="translate(-281.794 -75.147)"/>
              </g>
              <path id="Path_3694" data-name="Path 3694" class="cls-10" d="M324.2,180l17.684,26.526c-.155-3.1-.31-6.05-.465-9.152h0C341.419,197.219,332.111,185.429,324.2,180Z" transform="translate(-165.664 -61.697)"/>
              <path id="Path_3695" data-name="Path 3695" class="cls-3" d="M343.4,211c.465,1.706.776,3.258,1.086,4.809l28.7.776c0-1.551-.155-3.1-.31-4.809Z" transform="translate(-155.08 -44.609)"/>
              <path id="Path_3696" data-name="Path 3696" class="cls-10" d="M308.6,209.354c.155,1.551.31,3.258.62,4.809a42,42,0,0,0,18.46-9.463c-5.119,2.792-10.859,3.723-16.6,4.5A14.2,14.2,0,0,1,308.6,209.354Z" transform="translate(-174.263 -48.081)"/>
            </g>
            <path id="Path_3697" data-name="Path 3697" class="cls-3" d="M273,309.153,312.091,292.4l8.222,13.961L279.05,323.425Z" transform="translate(97.59 48.703)"/>
            <g id="Group_7099" data-name="Group 7099" transform="translate(58.861 237.325)">
              <g id="Group_7098" data-name="Group 7098" transform="translate(75.786 195.921)">
                <g id="Group_7097" data-name="Group 7097">
                  <path id="Path_3698" data-name="Path 3698" class="cls-3" d="M162.783,367.157c-1.086-.62-2.172-1.086-3.1-1.551l-1.861-.931c-1.086-.62-2.172-1.086-3.1-1.706-.776-.465-1.4-.776-2.172-1.241-1.086-.62-2.172-1.241-3.1-1.861a34.737,34.737,0,0,1-4.188-2.792v-.155a1.808,1.808,0,0,1-.31-1.086,10.268,10.268,0,0,1,.465-4.033h-16.6L120.9,387.478l77.717.621v-7.6A172.581,172.581,0,0,1,162.783,367.157Z" transform="translate(-120.9 -351.8)"/>
                  <g id="Group_7096" data-name="Group 7096" transform="translate(30.505 7.403)">
                    <g id="Group_7093" data-name="Group 7093" transform="translate(10.101 5.707)">
                      <rect id="Rectangle_3986" data-name="Rectangle 3986" class="cls-5" width="10.859" height="3.568" transform="translate(0 8.93) rotate(-55.326)"/>
                    </g>
                    <g id="Group_7094" data-name="Group 7094" transform="translate(5.271 2.823)">
                      <rect id="Rectangle_3987" data-name="Rectangle 3987" class="cls-5" width="10.859" height="3.568" transform="translate(0 8.93) rotate(-55.326)"/>
                    </g>
                    <g id="Group_7095" data-name="Group 7095" transform="translate(0 0)">
                      <rect id="Rectangle_3988" data-name="Rectangle 3988" class="cls-5" width="10.859" height="3.568" transform="translate(0 8.93) rotate(-55.326)"/>
                    </g>
                  </g>
                </g>
              </g>
              <path id="Path_3699" data-name="Path 3699" class="cls-14" d="M210.811,269.4c-8.222-16.443-54.293-18.77-54.293-18.77L78.18,225.5s-13.806,59.257,0,69.03,86.094,5.584,86.094,5.584L149.382,425.144h37.85S219.033,285.843,210.811,269.4Z" transform="translate(-72.044 -225.5)"/>
            </g>
            <g id="Group_7110" data-name="Group 7110" transform="translate(52.587)">
              <g id="Group_7109" data-name="Group 7109">
                <g id="Group_7108" data-name="Group 7108">
                  <g id="Group_7107" data-name="Group 7107">
                    <g id="Group_7100" data-name="Group 7100" transform="translate(44.365 64.983)">
                      <path id="Path_3700" data-name="Path 3700" class="cls-12" d="M122.04,153.026,96.6,142.012l1.241-12.875L98.927,117.5v-.465l5.895-2.637,12.255,9.152,2.017,12.255.776,4.343Z" transform="translate(-96.6 -114.4)"/>
                      <path id="Path_3701" data-name="Path 3701" class="cls-2" d="M119.427,139.048,97.4,128.034,98.486,116.4a7.929,7.929,0,0,0,5.584,1.241s7.291,10.859,14.582,17.064Z" transform="translate(-96.159 -113.298)"/>
                    </g>
                    <path id="Path_3702" data-name="Path 3702" class="cls-15" d="M152.7,298.445c3.258-29.473,3.723-79.423,4.033-101.761.465-32.576-17.684-47.778-17.684-47.778L105.85,135.1a74.765,74.765,0,0,0-21.1,41.883L68,306.977Z" transform="translate(-68 -38.006)"/>
                    <path id="Path_3703" data-name="Path 3703" class="cls-12" d="M137.053,94.529s9.307,23.889,13.806,30.094c3.1,4.343-7.291,4.343-7.291,4.343s1.706,41.728-18.615,24.2c-17.994-15.357-19.856-21.872-19.856-21.872s-7.911.155-9-5.429c-1.086-5.429.776-12.875,8.532-8.842,0,0,5.119-4.964,5.895-10.238.776-5.429-.62-16.443,7.756-15.357C126.66,92.668,137.053,94.529,137.053,94.529Z" transform="translate(-52.666 -62.122)"/>
                    <path id="Path_3704" data-name="Path 3704" class="cls-11" d="M82.578,124.617c-3.878-9.618-.62-21.562,7.446-28.077a23.312,23.312,0,0,0-11.324,0,15.647,15.647,0,0,1,16.288-6.515,27.826,27.826,0,0,1,6.2-13.961,10.284,10.284,0,0,0,.465,7.446A31.068,31.068,0,0,1,116.24,73.426c4.188-1.4,7.6-1.4,12.72,1.4l-7.136,2.792c9.152-2.482,20.321.62,26.681,7.756,6.36,6.981,6.67,19.39-.621,25.44a18.045,18.045,0,0,1-7.756,3.723,20.209,20.209,0,0,1-18.3-4.654,27.085,27.085,0,0,1-6.67,21.407c.465-2.637-2.482-4.964-5.119-4.5s-4.188,2.947-4.5,5.584,2.017,5.895,3.413,8.222C98.4,141.37,86.3,134.389,82.578,124.617Z" transform="translate(-62.102 -72.509)"/>
                    <path id="Path_3705" data-name="Path 3705" class="cls-3" d="M95.658,131l35.833,15.357v13.651L92.4,137.515Z" transform="translate(-54.55 -40.266)"/>
                    <circle id="Ellipse_588" data-name="Ellipse 588" class="cls-2" cx="5.119" cy="5.119" r="5.119" transform="translate(63.756 55.365)"/>
                    <g id="Group_7101" data-name="Group 7101" transform="translate(44.627 56.955)">
                      <path id="Path_3706" data-name="Path 3706" class="cls-2" d="M102.091,109.807a7.916,7.916,0,0,0-1.4.155c-.31.155-.776.155-1.086.465a3.364,3.364,0,0,0-.931,1.086,10.816,10.816,0,0,0-.931,2.637,4.293,4.293,0,0,0,.155,1.241s-.155,0-.31-.31a2.385,2.385,0,0,1-.62-.931,4.494,4.494,0,0,1,.31-3.413,2.725,2.725,0,0,1,1.551-1.4,3.172,3.172,0,0,1,1.706,0A4.051,4.051,0,0,1,102.091,109.807Z" transform="translate(-96.769 -109.225)"/>
                    </g>
                    <g id="Group_7106" data-name="Group 7106" transform="translate(23.82 9.449)">
                      <g id="Group_7102" data-name="Group 7102" transform="translate(0 20.321)">
                        <path id="Path_3707" data-name="Path 3707" class="cls-13" d="M89.474,91.7a7.072,7.072,0,0,1-.621,1.241c-.31.776-.776,2.017-1.4,3.568A25.357,25.357,0,0,0,86.217,108.3a20.723,20.723,0,0,0,5.429,10.393,20.364,20.364,0,0,0,2.792,2.637c.776.621,1.086.931,1.086.931l-1.4-.465a14.486,14.486,0,0,1-3.413-2.017,15.3,15.3,0,0,1-4.188-4.188,16.056,16.056,0,0,1-2.947-6.825,16.855,16.855,0,0,1,.465-7.446,25.863,25.863,0,0,1,2.327-5.429q1.4-2.094,2.327-3.258A9.5,9.5,0,0,1,89.474,91.7Z" transform="translate(-83.356 -91.7)"/>
                      </g>
                      <g id="Group_7103" data-name="Group 7103" transform="translate(8.853 24.354)">
                        <path id="Path_3708" data-name="Path 3708" class="cls-13" d="M93.929,94.3a5,5,0,0,0-.31.931c-.155.62-.62,1.4-.931,2.327a10.139,10.139,0,0,0-.62,3.258,36.489,36.489,0,0,0-.155,4.343,34.723,34.723,0,0,0,0,4.033,16.762,16.762,0,0,0,.776,3.258,18.062,18.062,0,0,0,.931,2.327,5,5,0,0,0,.31.931,3.443,3.443,0,0,1-.776-.62,10.475,10.475,0,0,1-1.706-1.861,14.041,14.041,0,0,1-1.861-3.413A12.416,12.416,0,0,1,89.121,105a15.337,15.337,0,0,1,.62-4.654A11.074,11.074,0,0,1,91.6,96.782a10.473,10.473,0,0,1,1.706-1.862A1.858,1.858,0,0,1,93.929,94.3Z" transform="translate(-89.062 -94.3)"/>
                      </g>
                      <g id="Group_7104" data-name="Group 7104" transform="translate(47.071 8.532)">
                        <path id="Path_3709" data-name="Path 3709" class="cls-13" d="M118.043,84.1a3.444,3.444,0,0,1,.776.62c.465.465,1.241,1.086,2.017,1.862a12.911,12.911,0,0,1,2.327,3.568,9.671,9.671,0,0,1-1.862,10.393,11.177,11.177,0,0,1-3.723,2.327,12.728,12.728,0,0,1-2.792.465,3.788,3.788,0,0,1-1.086-.155,5,5,0,0,1,.931-.31,17.911,17.911,0,0,0,2.327-1.241,9.951,9.951,0,0,0,4.033-6.36c.621-2.947-.465-5.74-1.4-7.756-.465-.931-.931-1.861-1.241-2.327A4.843,4.843,0,0,0,118.043,84.1Z" transform="translate(-113.7 -84.1)"/>
                      </g>
                      <g id="Group_7105" data-name="Group 7105" transform="translate(50.794)">
                        <path id="Path_3710" data-name="Path 3710" class="cls-13" d="M116.1,78.6s.931.155,2.327.465a11.655,11.655,0,0,1,4.964,2.792,8.552,8.552,0,0,1,2.637,5.274,6.4,6.4,0,0,1-.155,1.861,2.446,2.446,0,0,0-.155.62,8.494,8.494,0,0,0-1.086-2.017,30.807,30.807,0,0,0-3.258-3.723c-1.4-1.241-2.792-2.637-3.723-3.568C116.72,79.22,116.1,78.6,116.1,78.6Z" transform="translate(-116.1 -78.6)"/>
                      </g>
                    </g>
                    <path id="Path_3711" data-name="Path 3711" class="cls-3" d="M135.826,97.412a11.98,11.98,0,0,0-14.737,11.014l-20.476,2.482a2.08,2.08,0,0,0-1.706,2.327h0a2.08,2.08,0,0,0,2.327,1.706L121.71,112.3a12.008,12.008,0,0,0,23.269-5.895A12.776,12.776,0,0,0,135.826,97.412Zm-2.792,19.546a7.911,7.911,0,1,1,7.911-7.911A7.945,7.945,0,0,1,133.034,116.958Z" transform="translate(-50.974 -58.955)"/>
                  </g>
                </g>
              </g>
            </g>
            <path id="Path_3712" data-name="Path 3712" class="cls-12" d="M143.45,237.183h46.537s0-8.377-2.327-9.928S163.306,215,163.306,215l-22.183,4.188L137.4,233.3Z" transform="translate(22.843 6.037)"/>
            <path id="Path_3713" data-name="Path 3713" class="cls-4" d="M172.521,246.268c-28.853,3.258-68.409,1.4-68.409,1.4l9-67.324a71.611,71.611,0,0,0-9-45.141h0s-29.629,22.648-32.266,64.066c-2.482,41.573,2.172,66.393,6.67,76.01,3.1,6.36,56.93,6.36,92.3,5.584Z" transform="translate(-13.675 -37.951)"/>
            <path id="Path_3714" data-name="Path 3714" class="cls-3" d="M136.8,210.131l11.014-.931-3.258,31.18-9.152-.465Z" transform="translate(21.74 2.84)"/>
            <g id="Group_7114" data-name="Group 7114" transform="translate(147.833 241.669)">
              <g id="Group_7111" data-name="Group 7111" transform="translate(0 15.667)">
                <path id="Path_3715" data-name="Path 3715" class="cls-16" d="M135.295,238.4h57.861v15.668H135.295a5.892,5.892,0,0,1-5.895-5.895V244.45A5.927,5.927,0,0,1,135.295,238.4Z" transform="translate(-129.4 -238.4)"/>
                <path id="Path_3716" data-name="Path 3716" class="cls-3" d="M135.223,240.2h56.62v9.928h-56.62a3.775,3.775,0,0,1-3.723-3.723v-2.327A3.809,3.809,0,0,1,135.223,240.2Z" transform="translate(-128.242 -237.408)"/>
              </g>
              <g id="Group_7113" data-name="Group 7113" transform="translate(2.482)">
                <g id="Group_7112" data-name="Group 7112">
                  <path id="Path_3717" data-name="Path 3717" class="cls-17" d="M188.861,243.967H131V228.3h57.861a5.892,5.892,0,0,1,5.895,5.895v3.723A5.927,5.927,0,0,1,188.861,243.967Z" transform="translate(-131 -228.3)"/>
                  <path id="Path_3718" data-name="Path 3718" class="cls-3" d="M187.62,240.128H131V230.2h56.62a3.775,3.775,0,0,1,3.723,3.723v2.327A3.713,3.713,0,0,1,187.62,240.128Z" transform="translate(-131 -227.253)"/>
                </g>
              </g>
            </g>
          </g>
          <g id="Group_7118" data-name="Group 7118" transform="translate(52.897 360.183)">
            <g id="Group_7117" data-name="Group 7117" transform="translate(4.654 62.98)">
              <g id="Group_7116" data-name="Group 7116">
                <path id="Path_3720" data-name="Path 3720" class="cls-8" d="M136.534,391.682H45.942A8.838,8.838,0,0,1,37.1,382.84V345.3H145.376v37.54A8.741,8.741,0,0,1,136.534,391.682Z" transform="translate(-37.1 -345.3)"/>
              </g>
            </g>
            <path id="Path_3721" data-name="Path 3721" class="cls-13" d="M115.23,320.212V316.8a12.115,12.115,0,0,0-12.1-12.1H82.809a12.115,12.115,0,0,0-12.1,12.1v3.413H34.1v52.122a8.838,8.838,0,0,0,8.842,8.842H143a8.838,8.838,0,0,0,8.842-8.842V320.212ZM76.6,316.955a6.223,6.223,0,0,1,6.2-6.2H103.13a6.223,6.223,0,0,1,6.2,6.2v3.413H76.6Z" transform="translate(-34.1 -304.7)"/>
            <rect id="Rectangle_3989" data-name="Rectangle 3989" class="cls-18" width="18.925" height="12.72" transform="translate(49.329 70.271)"/>
          </g>
        </g>
        <g id="Group_7135" data-name="Group 7135" transform="translate(616.461 230.902)">
          <path id="Path_3722" data-name="Path 3722" class="cls-1" d="M516.224,378.109a373.622,373.622,0,0,1-59.412,4.809,371.15,371.15,0,0,1-59.412-4.809,373.622,373.622,0,0,1,59.412-4.809A396.693,396.693,0,0,1,516.224,378.109Z" transform="translate(-397.4 -137.604)"/>
          <g id="Group_7134" data-name="Group 7134" transform="translate(10.548)">
            <g id="Group_7132" data-name="Group 7132" transform="translate(2.02)">
              <g id="Group_7122" data-name="Group 7122" transform="translate(0 93.761)">
                <g id="Group_7120" data-name="Group 7120">
                  <path id="Path_3723" data-name="Path 3723" class="cls-4" d="M439.315,291.882c12.1,12.1,9.928,33.662,9.928,33.662s-21.562,2.172-33.662-9.928-9.928-33.662-9.928-33.662S427.216,279.782,439.315,291.882Z" transform="translate(-405.502 -281.802)"/>
                  <path id="Path_3724" data-name="Path 3724" class="cls-15" d="M405.654,281.9l43.59,43.59s-21.562,2.172-33.662-9.928S405.654,281.9,405.654,281.9Z" transform="translate(-405.502 -281.748)"/>
                </g>
                <g id="Group_7121" data-name="Group 7121" transform="translate(48.399)">
                  <path id="Path_3725" data-name="Path 3725" class="cls-4" d="M446.782,291.882c-12.1,12.1-9.928,33.662-9.928,33.662s21.562,2.172,33.662-9.928,9.928-33.662,9.928-33.662S458.726,279.782,446.782,291.882Z" transform="translate(-436.702 -281.802)"/>
                  <path id="Path_3726" data-name="Path 3726" class="cls-15" d="M480.39,281.9,436.8,325.49s21.562,2.172,33.662-9.928C482.406,303.462,480.39,281.9,480.39,281.9Z" transform="translate(-436.648 -281.748)"/>
                </g>
              </g>
              <g id="Group_7125" data-name="Group 7125" transform="translate(8.104 53.469)">
                <g id="Group_7123" data-name="Group 7123">
                  <path id="Path_3727" data-name="Path 3727" class="cls-4" d="M438.607,264.161c9.928,9.928,8.221,27.767,8.221,27.767s-17.839,1.706-27.767-8.221-8.222-27.767-8.222-27.767S428.679,254.233,438.607,264.161Z" transform="translate(-410.725 -255.828)"/>
                  <path id="Path_3728" data-name="Path 3728" class="cls-15" d="M410.841,255.9l35.833,35.834s-17.839,1.706-27.767-8.222C409.134,273.739,410.841,255.9,410.841,255.9Z" transform="translate(-410.726 -255.788)"/>
                </g>
                <g id="Group_7124" data-name="Group 7124" transform="translate(39.869)">
                  <path id="Path_3729" data-name="Path 3729" class="cls-4" d="M444.761,264.161c-9.928,9.928-8.222,27.767-8.222,27.767s17.839,1.706,27.767-8.221,8.222-27.767,8.222-27.767S454.689,254.233,444.761,264.161Z" transform="translate(-436.428 -255.828)"/>
                  <path id="Path_3730" data-name="Path 3730" class="cls-15" d="M472.333,255.9,436.5,291.734s17.839,1.706,27.767-8.222C474.2,273.739,472.333,255.9,472.333,255.9Z" transform="translate(-436.388 -255.788)"/>
                </g>
              </g>
              <g id="Group_7128" data-name="Group 7128" transform="translate(18.504 22.401)">
                <g id="Group_7126" data-name="Group 7126">
                  <path id="Path_3731" data-name="Path 3731" class="cls-4" d="M437.7,241.833C444.831,248.968,443.59,262,443.59,262s-13.03,1.241-20.166-5.895-5.895-20.166-5.895-20.166S430.4,234.542,437.7,241.833Z" transform="translate(-417.422 -235.783)"/>
                  <path id="Path_3732" data-name="Path 3732" class="cls-15" d="M417.538,235.8,443.6,261.861s-13.03,1.241-20.166-5.895C416.142,248.83,417.538,235.8,417.538,235.8Z" transform="translate(-417.431 -235.8)"/>
                </g>
                <g id="Group_7127" data-name="Group 7127" transform="translate(29.033)">
                  <path id="Path_3733" data-name="Path 3733" class="cls-4" d="M442.124,241.833c-7.136,7.136-5.895,20.166-5.895,20.166s13.03,1.241,20.166-5.895,5.895-20.166,5.895-20.166S449.26,234.542,442.124,241.833Z" transform="translate(-436.147 -235.783)"/>
                  <path id="Path_3734" data-name="Path 3734" class="cls-15" d="M462.261,235.8,436.2,261.861s13.03,1.241,20.166-5.895S462.261,235.8,462.261,235.8Z" transform="translate(-436.117 -235.8)"/>
                </g>
              </g>
              <rect id="Rectangle_3990" data-name="Rectangle 3990" class="cls-15" width="4.809" height="149.229" transform="translate(43.741 17.282)"/>
              <g id="Group_7131" data-name="Group 7131" transform="translate(27.08)">
                <g id="Group_7129" data-name="Group 7129">
                  <path id="Path_3735" data-name="Path 3735" class="cls-4" d="M437.6,225.766c5.274,5.274,4.344,14.582,4.344,14.582s-9.307.931-14.581-4.343-4.344-14.582-4.344-14.582S432.485,220.492,437.6,225.766Z" transform="translate(-422.959 -221.359)"/>
                  <path id="Path_3736" data-name="Path 3736" class="cls-15" d="M423.022,221.4l18.925,18.925s-9.307.931-14.581-4.344C422.092,230.862,423.022,221.4,423.022,221.4Z" transform="translate(-422.959 -221.337)"/>
                </g>
                <g id="Group_7130" data-name="Group 7130" transform="translate(18.925)">
                  <path id="Path_3737" data-name="Path 3737" class="cls-4" d="M439.566,225.766c-5.274,5.274-4.343,14.582-4.343,14.582s9.307.931,14.582-4.343,4.344-14.582,4.344-14.582S444.84,220.492,439.566,225.766Z" transform="translate(-435.159 -221.359)"/>
                  <path id="Path_3738" data-name="Path 3738" class="cls-15" d="M454.125,221.4,435.2,240.325s9.308.931,14.582-4.344C455.056,230.862,454.125,221.4,454.125,221.4Z" transform="translate(-435.137 -221.337)"/>
                </g>
              </g>
            </g>
            <g id="Group_7133" data-name="Group 7133" transform="translate(0 164.804)">
              <path id="Path_3739" data-name="Path 3739" class="cls-19" d="M475.872,400.468H422.2L410.1,333.3h78.027Z" transform="translate(-400.948 -324.458)"/>
              <rect id="Rectangle_3991" data-name="Rectangle 3991" class="cls-20" width="96.021" height="17.684"/>
            </g>
          </g>
        </g>
      </g>
      <g id="Group_7155" data-name="Group 7155" transform="translate(52.897 0)">
        <g id="Group_7138" data-name="Group 7138" transform="translate(409.06)">
          <path id="Path_3740" data-name="Path 3740" class="cls-3" d="M520.712,23.4H304.936a7.117,7.117,0,0,0-7.136,7.136V94.757a7.117,7.117,0,0,0,7.136,7.136h16.133v29.939l29.784-30.094h169.86a7.117,7.117,0,0,0,7.136-7.136V30.536A7.218,7.218,0,0,0,520.712,23.4Z" transform="translate(-297.8 -23.4)"/>
          <g id="Group_7137" data-name="Group 7137" transform="translate(23.113 15.047)">
            <rect id="Rectangle_3992" data-name="Rectangle 3992" class="cls-5" width="97.728" height="9.618"/>
            <rect id="Rectangle_3993" data-name="Rectangle 3993" class="cls-5" width="183.666" height="10.238" transform="translate(0 18.925)"/>
            <rect id="Rectangle_3994" data-name="Rectangle 3994" class="cls-5" width="154.193" height="10.238" transform="translate(0 38.16)"/>
          </g>
        </g>
        <g id="Group_7154" data-name="Group 7154" transform="translate(0 22.19)">
          <g id="Group_7147" data-name="Group 7147" transform="translate(190.957 64.531)">
            <g id="Group_7142" data-name="Group 7142" transform="translate(91.523)">
              <g id="Group_7141" data-name="Group 7141" transform="translate(0 5.584)">
                <g id="Group_7139" data-name="Group 7139">
                  <path id="Path_3741" data-name="Path 3741" class="cls-18" d="M300.277,45.2H216.2v93.539h64.842l19.235-18.615Z" transform="translate(-216.2 -45.2)"/>
                  <path id="Path_3742" data-name="Path 3742" class="cls-21" d="M258,112.115,277.235,93.5H258Z" transform="translate(-193.158 -18.575)"/>
                </g>
                <g id="Group_7140" data-name="Group 7140" transform="translate(11.014 12.875)">
                  <rect id="Rectangle_3995" data-name="Rectangle 3995" class="cls-21" width="62.049" height="5.429"/>
                  <rect id="Rectangle_3996" data-name="Rectangle 3996" class="cls-21" width="62.049" height="5.429" transform="translate(0 11.789)"/>
                  <rect id="Rectangle_3997" data-name="Rectangle 3997" class="cls-21" width="62.049" height="5.429" transform="translate(0 23.424)"/>
                  <rect id="Rectangle_3998" data-name="Rectangle 3998" class="cls-21" width="62.049" height="5.429" transform="translate(0 35.213)"/>
                  <rect id="Rectangle_3999" data-name="Rectangle 3999" class="cls-21" width="62.049" height="5.429" transform="translate(0 46.847)"/>
                </g>
              </g>
              <path id="Path_3743" data-name="Path 3743" class="cls-3" d="M250.969,47.184a5.584,5.584,0,1,1-5.584-5.584A5.561,5.561,0,0,1,250.969,47.184Z" transform="translate(-203.191 -41.6)"/>
            </g>
            <g id="Group_7146" data-name="Group 7146" transform="translate(0 35.672)">
              <g id="Group_7145" data-name="Group 7145" transform="translate(0 5.591)">
                <g id="Group_7143" data-name="Group 7143">
                  <rect id="Rectangle_4000" data-name="Rectangle 4000" class="cls-18" width="84.077" height="93.539"/>
                </g>
                <g id="Group_7144" data-name="Group 7144" transform="translate(11.014 12.875)">
                  <rect id="Rectangle_4001" data-name="Rectangle 4001" class="cls-21" width="62.049" height="5.429"/>
                  <rect id="Rectangle_4002" data-name="Rectangle 4002" class="cls-21" width="62.049" height="5.429" transform="translate(0 11.789)"/>
                  <rect id="Rectangle_4003" data-name="Rectangle 4003" class="cls-21" width="62.049" height="5.429" transform="translate(0 23.424)"/>
                  <rect id="Rectangle_4004" data-name="Rectangle 4004" class="cls-21" width="62.049" height="5.429" transform="translate(0 35.213)"/>
                  <rect id="Rectangle_4005" data-name="Rectangle 4005" class="cls-21" width="62.049" height="5.429" transform="translate(0 46.847)"/>
                </g>
              </g>
              <path id="Path_3744" data-name="Path 3744" class="cls-3" d="M191.969,70.187a5.584,5.584,0,1,1-5.585-5.584A5.375,5.375,0,0,1,191.969,70.187Z" transform="translate(-144.191 -64.596)"/>
            </g>
          </g>
          <g id="Group_7148" data-name="Group 7148" transform="translate(0 167.688)">
            <rect id="Rectangle_4006" data-name="Rectangle 4006" class="cls-20" width="24.044" height="24.044" transform="translate(24.044)"/>
            <rect id="Rectangle_4007" data-name="Rectangle 4007" class="cls-21" width="24.044" height="24.044" transform="translate(0 29.008)"/>
          </g>
          <g id="Group_7153" data-name="Group 7153" transform="translate(23.269)">
            <g id="Group_7150" data-name="Group 7150">
              <rect id="Rectangle_4008" data-name="Rectangle 4008" class="cls-3" width="54.448" height="24.199" transform="translate(31.955)"/>
              <g id="Group_7149" data-name="Group 7149" transform="translate(0 31.955)">
                <rect id="Rectangle_4009" data-name="Rectangle 4009" class="cls-3" width="54.448" height="24.199"/>
                <rect id="Rectangle_4010" data-name="Rectangle 4010" class="cls-3" width="54.448" height="24.199" transform="translate(63.756)"/>
              </g>
            </g>
            <g id="Group_7152" data-name="Group 7152" transform="translate(512.289 202.07)">
              <rect id="Rectangle_4011" data-name="Rectangle 4011" class="cls-3" width="54.448" height="24.199" transform="translate(86.156 56.191) rotate(180)"/>
              <g id="Group_7151" data-name="Group 7151" transform="translate(0 0)">
                <rect id="Rectangle_4012" data-name="Rectangle 4012" class="cls-3" width="54.448" height="24.199" transform="translate(118.067 24.199) rotate(180)"/>
                <rect id="Rectangle_4013" data-name="Rectangle 4013" class="cls-3" width="54.448" height="24.199" transform="translate(54.448 24.199) rotate(180)"/>
              </g>
            </g>
          </g>
        </g>
      </g>
    </g>
  </g>
</svg>
